# xmcd CD database file
#
# Track frame offsets:
#	150
#	11832
#	22241
#	36037
#	45418
#	53514
#	66940
#	77428
#	89332
#	101645
#	115353
#	129456
#	142160
#	159135
#	171519
#	188316
#	199012
#	212454
#	224295
#	236046
#	248923
#	261865
#	273405
#	283798
#	301961
#
# Disc length: 4345 seconds
#
# Revision: 0
# Processed by: cddbd v1.5.1PL0 Copyright (c) Steve Scherf et al.
# Submitted via: CDex 1.40Release
#
DISCID=6310f719
DTITLE=Johnny Cash - Greatest Hits
DYEAR=1900
DGENRE=Country
TTITLE0=I Walk the line
TTITLE1=Big River
TTITLE2=Don´t take your guns to town
TTITLE3=I got stripes
TTITLE4=Five feet high and rising
TTITLE5=Tennessee flat-top box
TTITLE6=Bonanza
TTITLE7=Ring of fire
TTITLE8=Understand your man
TTITLE9=It Ain´t me babe
TTITLE10=Orange Blossom Special
TTITLE11=The one on the right is on the left
TTITLE12=(Ghost) Riders in the sky
TTITLE13=Jackson (With June Carter)
TTITLE14=A Boy named sue (live)
TTITLE15=Daddy sang bass
TTITLE16=If i were a carpenter (With June Carter)
TTITLE17=What is truth
TTITLE18=Flesh and Blood
TTITLE19=Wanted man
TTITLE20=Man in Black
TTITLE21=A thing called love
TTITLE22=Kate
TTITLE23=One Piece at a time
TTITLE24=Highway Patrolman
EXTD=ID3G: 2
EXTT0=
EXTT1=
EXTT2=
EXTT3=
EXTT4=
EXTT5=
EXTT6=
EXTT7=
EXTT8=
EXTT9=
EXTT10=
EXTT11=
EXTT12=
EXTT13=
EXTT14=
EXTT15=
EXTT16=
EXTT17=
EXTT18=
EXTT19=
EXTT20=
EXTT21=
EXTT22=
EXTT23=
EXTT24=
PLAYORDER=
